PathFileType	4	(X/Y/Z)	Patient4_TMGait_0pt7_02_right_43.trc.trc
DataRate	CameraRate	NumFrames	NumMarkers	Units	OrigDataRate	OrigDataStartFrame	OrigNumFrames
87.500000000000	87.500000000000	5	33	mm	87.500000000000	71	       141
Frame#	Time	Sacral			L.Shoulder			Chest			R.Shoulder			Neck			R.ASIS			L.ASIS			R.Thigh.Superior			R.Thigh.Lateral			R.Thigh.Inferior			R.Patella			L.Thigh.Superior			L.Thigh.Lateral			L.Thigh.Inferior			L.Patella			L.Shank.Superior			L.Shank.Lateral			L.Shank.Inferior			R.Shank.Superior			R.Shank.Lateral			R.Shank.Inferior			R.Heel			R.Midfoot.Superior			R.Midfoot.Lateral			R.Toe			L.Heel			L.Midfoot.Lateral			L.Midfoot.Superior			L.Toe			L.Elbow			L.Wrist			R.Elbow			R.Wrist			
		X1	Y1	Z1	X2	Y2	Z2	X3	Y3	Z3	X4	Y4	Z4	X5	Y5	Z5	X6	Y6	Z6	X7	Y7	Z7	X8	Y8	Z8	X9	Y9	Z9	X10	Y10	Z10	X11	Y11	Z11	X12	Y12	Z12	X13	Y13	Z13	X14	Y14	Z14	X15	Y15	Z15	X16	Y16	Z16	X17	Y17	Z17	X18	Y18	Z18	X19	Y19	Z19	X20	Y20	Z20	X21	Y21	Z21	X22	Y22	Z22	X23	Y23	Z23	X24	Y24	Z24	X25	Y25	Z25	X26	Y26	Z26	X27	Y27	Z27	X28	Y28	Z28	X29	Y29	Z29	X30	Y30	Z30	X31	Y31	Z31	X32	Y32	Z32	X33	Y33	Z33	

71	49.520000000000	704.902677994195	1012.107081039434	510.990049213316	899.808044895047	1425.061897518640	323.082679137796	1010.317076288135	1343.467091630854	473.132521560498	951.955042691707	1426.344098995688	651.930150837648	916.659631232617	1482.297934574649	478.761665766852	923.482127994218	934.121547168747	628.049616846962	911.610586210746	944.146395731085	352.130732567282	914.888593145632	722.156764716516	604.635843064153	801.588659100071	632.819963963996	657.361446760454	865.823851209598	564.704501842071	582.676698714486	845.783342666370	481.030900145833	585.114380960057	983.592185170775	777.537942962149	387.765123404386	951.545749093843	646.904580152189	300.519650597755	1055.583929040622	593.598309912034	366.830803630237	1087.715005122496	526.213034526069	360.779213961213	1067.602515588989	450.821479327527	350.185566281910	997.051962231398	323.996664383162	295.896992358055	1078.307704351184	220.692873059185	351.644003864408	806.299834991898	399.310685855001	587.074811664887	720.582206792605	303.780913507157	643.200223683409	754.343283162676	205.837962021149	578.098233004710	606.537994337099	46.439525287922	540.255388338677	779.302896421079	96.843694674269	577.530495749474	689.631514868486	37.881712505364	614.168638653883	897.942658677194	38.994475480319	604.845309320026	987.293640394593	43.852637073995	384.394255080246	1064.830018722201	47.213454026047	307.467033123692	1136.968276861263	122.237744302667	332.657223708197	1271.008965456007	88.503282985775	311.879796539885	709.286801792931	1138.603375051896	218.015370217517	619.549106394776	893.602216748875	227.892078683586	1105.883586293699	1128.084828024241	757.034973595682	1315.789817091548	1210.744262447987	644.766005743897	
72	49.531428571429	706.429311448656	1009.489476490886	508.993086253064	899.823792576155	1423.112866828013	321.285518306086	1010.326468165904	1341.995738274558	471.613305630975	951.113527430764	1424.657929372137	650.206401153215	916.120516609213	1480.430988846864	476.980020706134	924.735284632605	932.081122106635	626.529518456183	913.331388572286	941.900307882487	350.622972015807	914.514990501965	719.842220744082	602.831995611833	800.274419112352	631.487254682939	655.955356345539	863.310221317508	562.792343366417	580.934090515705	842.421638195363	478.976707239797	583.274251831096	983.821984040865	772.940086878267	386.073432579850	948.608044562664	642.320371998107	299.692176997719	1052.523385459816	588.343863109709	365.620818936755	1083.704037217320	521.876113091129	360.188630120692	1065.038306965271	447.083120922703	349.258206052753	996.551078248123	318.517865285826	296.729686703203	1080.846163769816	217.252882482837	351.857513918889	801.916275014743	397.758286512278	585.547457850722	715.705655622411	303.125272275979	642.491879542767	747.684972093353	204.842572471829	577.131228185841	598.422113818508	46.156464980937	540.165948056501	771.060273357320	96.701071016450	577.273165146026	681.495708186703	37.806307261997	614.137216017062	889.844067423270	38.915890568836	604.860623074410	993.011627301126	40.241497772967	385.892213224254	1070.083019950525	44.142182709061	308.429182092718	1142.097832008295	118.897880289721	333.527848077044	1276.141670238889	85.437254037409	311.917580873322	707.820049014813	1138.085669067655	216.660242522202	615.999002821836	893.838540931914	226.644294398023	1107.242396498235	1127.652808061580	754.771505613970	1312.993462002504	1217.735357010280	641.634719090869	
73	49.542857142857	707.955438269405	1006.940670200765	506.848033555465	899.849626020268	1421.177633741977	319.272292553887	1010.373401759004	1340.668717509032	469.949116602924	950.195380077888	1423.090363795851	648.344324886813	915.628610925802	1478.669597368580	474.962404937847	926.165445483469	930.107167584178	624.851485069552	915.118800068125	939.783682456289	349.019701254719	914.622367524102	717.643811117776	600.894785431683	799.539675411452	630.188721742033	654.456027897407	861.433927205406	560.924879642818	579.136881317955	839.663309984169	476.905384564901	581.364592802353	984.457863955697	768.711536912803	384.101536783585	946.026270204479	638.155361470303	298.857561870389	1050.079431738376	583.691624488847	364.108109860926	1080.094082838626	517.759632573836	359.356018377652	1062.503589308163	443.420639228764	348.217896078996	995.082309007069	313.702958625099	297.664117051792	1081.557163173819	213.934294961261	352.167779183022	798.054995093661	396.202016832051	583.982665673673	711.214623392274	302.615516815634	641.788385411490	741.266638185803	203.950747962425	576.239033877042	590.344889876123	46.186928114051	540.179079851487	762.938329192229	96.608879442035	577.099906212124	673.411513025226	37.840078366917	614.179071193650	881.780635333629	38.799937981881	604.889226152918	995.355006898443	37.864001820298	387.682353508898	1071.851430781445	41.635102225310	309.588472473765	1144.476472324677	115.289403170702	334.598893957749	1278.120833002125	80.785948696382	311.979984091311	707.151868941921	1136.843863695199	215.233368271607	613.726101413942	893.220684566235	225.255845751435	1107.871321717811	1126.816696694937	752.611393833482	1309.775007702978	1223.317623366671	638.799347950087	
74	49.554285714286	709.435014089413	1004.604165830394	504.603997171002	899.904964401297	1419.357872383036	317.057552030047	1010.484726140622	1339.558434352965	468.130802949352	949.286300794942	1421.729336672054	646.347452373704	915.240435157146	1477.108600806819	472.712348217290	927.721923716267	928.287398174764	622.995835900457	916.895957707141	937.916936006065	347.290102408675	915.154682536054	715.638795315943	598.846436568533	799.341251056875	628.979405850880	652.860494701009	860.198307170130	559.157137440708	577.309441008041	837.529754083719	474.861551408515	579.421145100439	985.485868093456	765.088273161218	381.880222687038	943.922848196536	634.624148624576	298.032652428963	1048.335598956272	579.845859851950	362.346485621901	1077.004948316356	514.068629908290	358.370073569029	1060.136754742769	440.016210353156	347.150713088002	992.927897042826	309.701456562765	298.490163338624	1080.626509104760	210.828969760208	352.506454395997	794.727139869936	394.685931592865	582.404899230537	707.091486194389	302.317017574533	641.082017245545	735.107849679814	203.222093998973	575.443683097429	582.322023463996	46.610445933445	540.297181134983	754.976741824124	96.586570833413	577.021233786012	665.392502594388	38.022615825837	614.292815673817	873.759589259958	38.651575560095	604.928713387739	994.579254419474	36.534204624306	389.508796137874	1070.481693360012	39.657392104883	310.761237142743	1144.285010480251	111.585362593706	335.740866805169	1277.253574101747	75.018395263492	312.057852841563	707.339355152472	1134.939756885202	213.722971327877	612.808618973786	891.779765330496	223.713944136174	1107.704568676302	1125.583509516075	750.581493261716	1306.200509371519	1227.479077002610	636.262746960043	
75	49.565714285714	710.833638960490	1002.618947059455	502.313081892842	900.014365886119	1417.758236511083	314.665696929812	1010.688346861795	1338.728931200403	466.154426588877	948.485072055161	1420.660978917646	644.221992353468	915.011684274445	1475.840650003672	470.245661242543	929.345351875422	926.714012720239	620.949206953356	918.591510310181	936.414954967562	345.400900335843	916.030024180289	713.909130473333	596.704884056534	799.623861665796	627.916520650392	651.170461816020	859.596286651077	557.552350602403	575.472855086315	836.044173368148	472.889504706106	577.494326122558	986.866270159742	762.274546695327	379.455830068773	942.388612228828	631.907840677000	297.206550033782	1047.303662360323	576.941481907491	360.397228519240	1074.498653225209	510.974089902282	357.307573057174	1058.033350576397	437.031998214878	346.129239577331	990.378482435070	306.621932001148	298.998612902803	1078.296492560000	208.039628793514	352.812663527812	791.943175981596	393.257804337687	580.851641484517	703.317995922108	302.297523679166	640.369562098414	729.232898044774	202.718309590294	574.768142953796	574.374104307705	47.511345206900	540.517846925652	747.217931985281	96.651886290469	577.045236942053	657.452505507645	38.396408723915	614.472367352039	865.786584543078	38.479625265821	604.973215331144	991.113520933136	36.024630471928	391.153217144906	1066.476666191959	38.166249805739	311.794532921830	1141.805484335816	108.009173851586	336.825627850970	1273.956027933020	68.749468060352	312.135348445079	708.424495970280	1132.470962076357	212.122933298481	613.323954870947	889.578227374334	222.008241187708	1106.674655337367	1123.968465713529	748.705374987521	1302.326787230951	1230.210435330501	634.028052334591	
